<svg xmlns="http://www.w3.org/2000/svg"  viewBox="0 0 48 48" width="65px" height="65px"><path fill="#ff9800" d="M37.25 45L34.625 45 34.625 43.125 38 43.125zM22 37L17 31 17 25 27 25 27 31z"/><path fill="#f9a825" d="M33,19c0,1.106-0.896,2-2,2c-1.106,0-2-0.894-2-2c0-1.105,0.894-2,2-2C32.104,17,33,17.895,33,19 M15,19c0-1.105-0.896-2-2-2c-1.106,0-2,0.895-2,2c0,1.106,0.894,2,2,2C14.104,21,15,20.106,15,19"/><path fill="#ffb74d" d="M31,13c0-7.635-18-4.971-18,0v7c0,4.971,4.028,9,9,9c4.971,0,9-4.029,9-9V13z"/><path fill="#424242" d="M22,4c-6.075,0-10,4.926-10,11v2.285L14,19v-5l12-4l4,4v5l2-1.742V15c0-4.025-1.038-8.016-6-9l-1-2 H22z"/><path fill="#784719" d="M25,19c0-0.551,0.448-1,1-1s1,0.449,1,1s-0.448,1-1,1S25,19.551,25,19 M17,19c0,0.551,0.448,1,1,1 s1-0.449,1-1s-0.448-1-1-1S17,18.449,17,19"/><path fill="#fff" d="M22 43L17 31 22 32 27 31z"/><path fill="#212121" d="M21 35L20.333 39.465 22 43.465 23.667 39.465 23 35 24 34 22 32 20 34z"/><path fill="#90a4ae" d="M35,35.58C31.743,31.873,27,31,27,31l-5,12l-5-12c0,0-11,1.986-11,13h29V35.58z"/><path fill="#fff" d="M22,26c-2,0-2-2-2-2h4C24,24,24,26,22,26z"/><path fill="#1b5e20" d="M40 27L28.235 37.925 34.722 43.988 46 33.063z"/><path fill="#388e3c" d="M35.938 23L26 40.691 35.063 46 45 28.309z"/><path fill="#a5d6a7" d="M36.684,25.755l5.611,3.287l-7.978,14.203l-5.611-3.287L36.684,25.755"/><path fill="#388e3c" d="M39.5 26A1.5 1.5 0 1 0 39.5 29A1.5 1.5 0 1 0 39.5 26Z" transform="rotate(-59.681 39.501 27.5)"/><path fill="#388e3c" d="M31.5 40A1.5 1.5 0 1 0 31.5 43A1.5 1.5 0 1 0 31.5 40Z" transform="rotate(-59.681 31.5 41.501)"/><path fill="#388e3c" d="M35.5 31.001A3.499 3.499 0 1 0 35.5 37.999A3.499 3.499 0 1 0 35.5 31.001Z" transform="rotate(-59.681 35.501 34.501)"/><path fill="#ffb74d" d="M40.331,38.281l-1.991-1.12c-0.73-0.431-1.781,0.033-2.348,1.038l-1.64,2.907 c-0.567,1.005-0.434,2.169,0.296,2.6l2.035,1.145c0.731,0.41,1.766-0.058,2.326-1.051l1.64-2.907 C41.222,39.878,41.079,38.701,40.331,38.281z"/></svg>